<svg xmlns="http://www.w3.org/2000/svg" viewBox="0 0 359.83 331.04"><defs><style>.cls-1{fill:#fff;}.cls-2{fill:#ceadf2;}.cls-3{fill:#efd567;}.cls-4{fill:#ef9292;}.cls-5{fill:#8bd68b;}.cls-6{fill:#8fc4ef;}.cls-10,.cls-11,.cls-7,.cls-8,.cls-9{fill:none;stroke-miterlimit:10;stroke-width:3.12px;}.cls-7{stroke:#54522d;}.cls-8{stroke:#54332d;}.cls-9{stroke:#2d5436;}.cls-10{stroke:#362d54;}.cls-11{stroke:#2d4254;}</style></defs><title>logo</title><g id="artboard6"><path class="cls-1" d="M284.28,330a26.29,26.29,0,0,1-15.19-4.72c-13.06-9.15-17.8-29.38-10.35-44.19,6-11.85,3.92-26.1-4.88-33.88a19.66,19.66,0,0,0-13.38-5.11c-5.31,0-11.12,2-16.79,5.79-2.48,1.66-5.36,3.67-8.41,5.79l-.47.33c-15.06,10.49-37.75,26.31-61.64,35.19-13.18,4.92-25.25,7.41-35.87,7.41-16.57,0-30-5.79-41.16-17.71-17.06-18.27-29.88-34.36-40.34-50.62-10.32-16-18-34.34-24.86-59.38-.55-2-1.12-4-1.68-6-5.21-18.6-10.6-37.83-7.1-58.33,4.65-27.15,16.32-50.7,33.77-68.12C52.59,19.78,75.58,8.89,104.26,4.05A211.39,211.39,0,0,1,139,1a169.79,169.79,0,0,1,35.69,3.67C196,9.28,216.88,19.14,240,30.61c20.83,10.32,42.61,21.66,59.85,36.75,18.56,16.25,30.51,38.08,40.26,57.28s15.32,39.2,17.49,63c2.45,26.82,1.05,47.64-4.41,65.53a145.1,145.1,0,0,1-32.94,56.92C307.78,323.29,295.67,330,284.28,330Zm-43.77-92a24,24,0,0,1,16.11,6.12c10.19,9,12.65,25.36,5.84,38.88-6.45,12.83-2.24,31,9,38.91a21.61,21.61,0,0,0,12.62,4c10.16,0,21.62-6.46,33.14-18.67a140.78,140.78,0,0,0,32-55.27c5.31-17.32,6.67-37.64,4.26-63.93-2.12-23.21-7.53-42.74-17.05-61.46-10-19.71-21.3-40.27-39.3-56-16.9-14.8-38.39-26-59-36.16C215.27,23,194.62,13.25,173.84,8.78A166.08,166.08,0,0,0,139,5.21a206.13,206.13,0,0,0-34.08,3c-27.83,4.7-50.06,15.2-66.07,31.2C22,56.17,10.77,79,6.27,105.24c-3.35,19.56,1.9,38.33,7,56.47.58,2.06,1.14,4.07,1.69,6.09C21.71,192.41,29.21,210.36,39.3,226c10.31,16,23,31.92,39.89,50,10.27,11,22.79,16.33,38.29,16.33,10.1,0,21.62-2.38,34.25-7.08,23.41-8.73,45.85-24.37,60.7-34.73,3.5-2.44,6.39-4.44,8.95-6.15C227.71,240.21,234.33,238,240.51,238Z"/><path class="cls-1" d="M139,1.56A169.34,169.34,0,0,1,174.6,5.22c21.23,4.56,42.08,14.41,65.19,25.86,20.8,10.3,42.54,21.62,59.74,36.67,18.48,16.19,30.41,38,40.13,57.12S354.94,164,357.1,187.65c2.45,26.76,1,47.52-4.39,65.34a144.27,144.27,0,0,1-32.82,56.71c-12.39,13.13-24.37,19.78-35.61,19.78a25.83,25.83,0,0,1-14.89-4.62c-12.86-9-17.52-28.95-10.18-43.53,6.07-12.06,4-26.57-5-34.51a20.21,20.21,0,0,0-13.73-5.24c-5.41,0-11.32,2-17.08,5.88-2.44,1.63-5.27,3.6-8.26,5.68l-.63.44,0,0c-15,10.45-37.66,26.25-61.48,35.11-13.13,4.89-25.14,7.37-35.69,7.37-16.42,0-29.75-5.74-40.78-17.54-17-18.25-29.84-34.31-40.28-50.55-10.3-16-17.94-34.25-24.8-59.23q-.82-3-1.66-6l0-.06C4.56,144.19-.81,125,2.67,104.63c4.63-27,16.26-50.5,33.62-67.85C52.88,20.22,75.77,9.38,104.35,4.57a209.24,209.24,0,0,1,34.67-3M117.48,292.92c10.16,0,21.74-2.4,34.43-7.13,23.48-8.75,46-24.41,60.81-34.78,3.07-2.14,6.25-4.34,8.94-6.14,6.26-4.17,12.77-6.38,18.85-6.38a23.5,23.5,0,0,1,15.77,6c10,8.86,12.42,25,5.71,38.26-6.56,13-2.26,31.53,9.19,39.56a22.08,22.08,0,0,0,12.92,4.08c10.31,0,21.9-6.51,33.52-18.83a141.31,141.31,0,0,0,32.09-55.47c5.33-17.4,6.69-37.78,4.28-64.14-2.12-23.27-7.56-42.86-17.1-61.65-10-19.75-21.36-40.36-39.43-56.19-16.94-14.83-38.46-26-59.06-36.23C215.47,22.52,194.79,12.75,174,8.27A166.39,166.39,0,0,0,139,4.69a206,206,0,0,0-34.16,3C76.92,12.37,54.6,22.91,38.51,39,21.6,55.88,10.27,78.76,5.75,105.15c-3.37,19.68,1.91,38.5,7,56.74.57,2,1.13,4,1.68,6.05,6.77,24.65,14.3,42.66,24.41,58.38,10.33,16.05,23,32,40,50.1,10.37,11.1,23,16.5,38.67,16.5M139,.52a210.22,210.22,0,0,0-34.85,3C75.38,8.39,52.3,19.33,35.56,36.05,18,53.55,6.31,77.21,1.65,104.46c-3.53,20.6,1.88,39.9,7.11,58.55l1.68,6c6.88,25.08,14.57,43.44,24.92,59.52,10.48,16.29,23.32,32.41,40.4,50.7,11.14,11.93,24.88,17.87,41.54,17.87,10.77,0,22.76-2.48,36.06-7.44,24-8.91,46.7-24.77,61.75-35.25,3.23-2.25,6.27-4.38,8.87-6.12,5.69-3.79,11.31-5.69,16.5-5.69a19.29,19.29,0,0,1,13,5c8.62,7.63,10.62,21.62,4.76,33.26-7.56,15-2.75,35.56,10.51,44.85a26.92,26.92,0,0,0,15.49,4.81c9.19,0,21.55-4.4,36.37-20.1a145.49,145.49,0,0,0,33.05-57.13c5.48-17.93,6.9-38.83,4.44-65.73-2.17-23.82-7.75-43.89-17.55-63.16S318.83,83.27,300.21,67c-17.3-15.14-39.11-26.5-60-36.83C217.07,18.65,196.14,8.78,174.82,4.2A170.1,170.1,0,0,0,139,.52ZM117.48,291.87c-15.29,0-27.83-5.37-37.91-16.17-16.86-18.06-29.52-33.93-39.84-49.95-10-15.62-17.54-33.53-24.27-58.08q-.84-3-1.69-6.07c-5.07-18.1-10.32-36.81-7-56.27,4.48-26.17,15.71-48.87,32.46-65.61,15.95-15.93,38.09-26.37,65.8-31a204.36,204.36,0,0,1,34-2.95,165.1,165.1,0,0,1,34.7,3.56c20.73,4.46,41.35,14.2,64.21,25.52C258.49,45,280,56.16,296.77,70.89,314.7,86.58,326,107.09,336,126.77c9.48,18.65,14.88,38.13,17,61.27,2.39,26.2,1.05,46.46-4.24,63.73a140.45,140.45,0,0,1-31.85,55.07C305.36,319,294,325.34,284.1,325.34a21.12,21.12,0,0,1-12.32-3.89c-11.06-7.76-15.2-25.63-8.86-38.25,6.92-13.72,4.41-30.34-5.95-39.5a24.4,24.4,0,0,0-16.46-6.25c-6.22,0-12.88,2.19-19.42,6.55-2.64,1.76-5.71,3.9-9,6.16-14.83,10.34-37.25,26-60.59,34.66-12.62,4.7-23.94,7.05-34.06,7.05Z"/><path class="cls-1" d="M358.14,187.56c-2.17-23.82-7.75-43.89-17.55-63.16S318.83,83.27,300.21,67c-17.3-15.14-39.11-26.5-60-36.83C217.07,18.65,196.14,8.78,174.82,4.2A170.1,170.1,0,0,0,139,.52a210.22,210.22,0,0,0-34.85,3C75.38,8.39,52.3,19.33,35.56,36.05,18,53.55,6.31,77.21,1.65,104.46c-3.53,20.6,1.88,39.9,7.11,58.55l1.68,6c6.88,25.08,14.57,43.44,24.92,59.52,10.48,16.29,23.32,32.41,40.4,50.7,18.34,19.64,43.72,23.06,77.6,10.43,24-8.91,46.7-24.77,61.75-35.25,3.23-2.25,6.27-4.38,8.87-6.12,11-7.33,21.76-7.6,29.54-.72,8.62,7.63,10.62,21.62,4.76,33.26-7.56,15-2.75,35.56,10.51,44.85a26.92,26.92,0,0,0,15.49,4.81c9.19,0,21.55-4.4,36.37-20.1a145.49,145.49,0,0,0,33.05-57.13C359.18,235.36,360.6,214.46,358.14,187.56Zm-142.8,18.09a27.86,27.86,0,0,1-2,8.49A29.41,29.41,0,0,1,202,227.3a25.94,25.94,0,0,1-7.77,2.62l-.56.12a29.52,29.52,0,0,1-6.44.75c-.75,0-1.48,0-2.2-.1a26.51,26.51,0,0,1-8.14-2.51l-.12,0a27.44,27.44,0,0,1-7.34-4.46l-.17-.16a26.42,26.42,0,0,1-5.71-6.26,32.34,32.34,0,0,1-3.53-16.86,27.41,27.41,0,0,1,2.15-8.41A28.18,28.18,0,0,1,167,184.8a26.7,26.7,0,0,1,6.73-5.35l.63-.39a25,25,0,0,1,7.23-3.26,25.16,25.16,0,0,1,8-.11l.66.06a26.42,26.42,0,0,1,8.26,2.23,27.23,27.23,0,0,1,7.36,4.4A29.18,29.18,0,0,1,214.76,197a28.37,28.37,0,0,1,.69,6.16C215.45,204,215.42,204.83,215.34,205.65Z"/><path class="cls-2" d="M115.23,180.57l-.19-.16a26.75,26.75,0,0,0-8.79-7.9,12.79,12.79,0,0,0-1.79-2.73,16.32,16.32,0,0,0-9.86-5.32c-7.08-1.1-17.17,2.31-21.87,7.88a13.38,13.38,0,0,0-2.33,4l-.89.47c-3.06,1.62-5.27,4.44-5.08,7.79a35,35,0,0,0-4.91,9.68c-2,6.4-.07,13.91,3.7,19.39a12.88,12.88,0,0,0,5.87,4.82,7.17,7.17,0,0,0,4,4c19,8.42,47.11-6.77,46.62-28.45,0-.83-.1-1.65-.2-2.46A14.62,14.62,0,0,0,115.23,180.57Z"/><path class="cls-3" d="M37.89,85a18,18,0,0,0-.47,10.72c-1.8,2.68-2.85,5.55-2.06,8.59s3.35,5.09,5.53,7.15c2.81,2.66,5.59,5.9,9,7.79A19.3,19.3,0,0,0,63,121.1a55.13,55.13,0,0,0,7.53-.43c3.74-.37,7.2.89,10.9,1.27,7.82.8,16.53-2.69,18.36-11.1,1.88-8.58,2-17.52-3.59-22.78-3.26-3-4.16-6.15-8.49-10.17S77.17,73,73.93,69.71C62.34,58.11,42.27,72.84,37.89,85Z"/><path class="cls-4" d="M199.7,51.36c-.92-.7-1.9-1.38-2.92-2a19.91,19.91,0,0,0-1.11-3.07A18.05,18.05,0,0,0,182.22,36a6.57,6.57,0,0,0-3.93-1.53c-11.56-.34-22.37-5.07-32.81,2.55-3.51,2.57-7.27,6.43-9,10.47-2.29,5.28,0,9.9,3,14.23.73,1.06,1.53,2.11,2.38,3.15-1.11,8.28,2,17.12,10.39,20.42,5,2,10.49,1.25,15.65.55,5.92-.8,11.83-1.63,17.75-2.45a7.65,7.65,0,0,0,5.24-2.92,26.42,26.42,0,0,0,3.35-2.39C201.21,72.3,209,58.51,199.7,51.36Z"/><path class="cls-5" d="M290.15,98.61a19.48,19.48,0,0,0-8.63-7.1l-.86-.34a28.56,28.56,0,0,0-8.79-2.93c-4.11-.75-8.1-.09-11.14,2.94l-1.17.34c-3.74,1.15-7.47,2.67-10.41,5.33l-.07.06c-7.6,4.83-13.31,11.67-13,22,.17,6.9,3.21,14.21,9.12,18.13a20.16,20.16,0,0,0,3.71,1.93,20.55,20.55,0,0,0,12.94,6.07,19.22,19.22,0,0,0,8.33-1.41c6.54,2.33,13.72-.79,17.95-6.05,7.44-2.68,13.21-7.72,13.85-17.49C302.55,110.57,297.44,103.17,290.15,98.61Z"/><path class="cls-6" d="M318.28,185.58a31.64,31.64,0,0,0-8.74-1.92,59,59,0,0,0-7.83-1.26c-7.62-.84-17.08-1.43-22,5.82a11,11,0,0,0-1.77,4.32,18.74,18.74,0,0,0-6.34,6.75c-5.55,9.91-1.65,22.54,7.59,28.68a21.51,21.51,0,0,0,2.33,1.33,14,14,0,0,0,5,5.51c6.1,3.93,15.72,5.45,22.78,4.29a19.79,19.79,0,0,0,10.74-5.53,16.45,16.45,0,0,0,2.9-4.19,22.37,22.37,0,0,0,7.48-3.11c5.34-3.69,5.87-9.42,5.47-15.41C335.18,199.12,329.52,189.88,318.28,185.58Z"/><path class="cls-7" d="M55.7,70.37c.15,3.3-3,7.46-4.14,10.54s-2.16,6.64-1.47,10c1.47,7.2,6.72,7.63,12.81,6.44,5-1,12.25-2.56,16.58,1.16,5.14,4.43,2.07,13.34,1.89,19-.21,6.88,4.28,15,12.35,12"/><path class="cls-7" d="M101.37,120.88c-3.32-7.41-10.73-7.17-17.64-6-3.36.55-7,1.57-10.42,1.3-4.26-.33-4.17-5.66-3.25-9C71.93,100.38,79.51,91,71.8,85c-5.8-4.52-14.54.7-20.16,3.06-4.38,1.85-8.75,1.55-11.15-3.17C38,80,41.61,74.1,44.36,70"/><path class="cls-8" d="M192.86,67.07c-9.71-7.66-21.06-12.91-32.28-18.1-12.81-5.91-26.29-12-40.37-11.1a68.72,68.72,0,0,1,41.64-4.67c9.38,1.9,19.56,7.25,21.2,16.68a3.18,3.18,0,0,1-.49,2.8c-.69.71-2.25.37-2.2-.61-3.57,5.91-19.23,20.07-25.87,18.19s-12.11-6.51-17.34-11l-23.31-20"/><path class="cls-9" d="M250.3,74.21a12,12,0,0,0-12.17,5.43,3.79,3.79,0,0,0-.7,2.28c.24,2.45,3.67,2.77,6.1,2.37,4-.66,8.43-1.57,10.85-4.84s.53-9.39-3.52-9c-3.58.33-5.29,5.06-8.78,5.92"/><path class="cls-9" d="M251.86,74.68a237.37,237.37,0,0,0,28.46,34.78c2.38,2.4,4.95,5,5.43,8.35s-15.92,3.9-19.17,3c3.87-.8,6.87-3.85,10.5-5.42s9.12-.65,9.73,3.26c.45,2.88-2.06,5.29-4.32,7.12-8,6.44-17.08,13.26-27.31,12.4-10-.83-4-16.84-5.18-24.16a52.15,52.15,0,0,0-14.63-28.58"/><path class="cls-10" d="M92.47,221a16.29,16.29,0,0,1-2.68,1.24c-4.8,1.7-11,.47-13.53-3.92-2-3.37-1.48-7.6-.9-11.47,2-13.75,9.75-35.55,28.05-33.86,15.72,1.46,9,19.25,4.61,28.23-2.92,5.89-9.58,11.52-11.84,17.23-3.83,9.69,1.66,14.28,9.19,4.86,2-2.47,4.36-5.11,7.52-5.29a25.64,25.64,0,0,1,4.66.66,10.38,10.38,0,0,0,9.71-16.41"/><path class="cls-10" d="M93.75,184.1A41.43,41.43,0,0,1,83,169"/><path class="cls-10" d="M106.49,185.2l-2.16,1.7q6.09-4,12.55-7.39"/><path class="cls-10" d="M87.07,200.05c-1-1.41-3.23-.73-4.86-.07a27.9,27.9,0,0,1-10.83,2.07"/><path class="cls-10" d="M83.81,217.25a57.38,57.38,0,0,0-6.68,11.07"/><path class="cls-10" d="M97,200.5a19.29,19.29,0,0,0,12.35,3.36"/><path class="cls-10" d="M98.37,182.87A29.73,29.73,0,0,1,100.82,172"/><path class="cls-10" d="M84,193.45l-14.4-.61"/><path class="cls-11" d="M274.21,208.27a25.84,25.84,0,0,0-2.57,5.32c-1.8,5.59-.25,11.92,3.26,16.62,5.76,7.72,13.73,5.92,21,10.39,3.67,2.28,6.89,6.66,9.32,10.11,1.18,1.68,5.33,13.59,5.88,13.83-3.15-1.35-5-4.58-6.64-7.59l-8.75-16.19c5.26,4,5.8,11.73,9.78,17,1.39,1.84,3.78,3.46,5.87,2.49l0-3.32.17,1.43c-1.13.91-2.7-.35-3.55-1.52-3.39-4.68-7.35-10.4-9-16-1.86-6.49,1-6,4.49-11.62C317.22,207.09,288.6,184.27,274.21,208.27Z"/></g></svg>